<svg id="Capa_1" data-name="Capa 1" xmlns="http://www.w3.org/2000/svg" viewBox="0 0 264.67 114.66"><path d="M241.18,32.57a6.2,6.2,0,0,1-5.28.76c-14.07-2.55-28.39-2.85-42.52-4.78-4.64-.63-4.66-.46-4.71,4,0,1.3.57,3-1,3.62s-2.95-.63-4.1-1.83Q170.75,21,157.91,7.68c-1.44-1.49-3-3.79-5.09-3.06-2.22.79-.8,3.49-.84,5.27-.18,7.76,0,15.54-.09,23.3,0,1.25.47,3.15-1.47,3.21s-1.68-1.87-1.68-3.12c-.06-10,0-20-.05-29.95,0-1.94.93-2.58,2.76-2.52a10.24,10.24,0,0,1,7.21,3.26C166.44,12,174.21,19.88,182,27.75c.79.8,1.38,2.49,2.81,1.85,1.21-.54.41-2,.42-3.05.06-7,.06-14.06.11-21.08a13.62,13.62,0,0,1,.34-2.92c.2-.89.75-1.64,1.8-1.52s1.16,1.09,1.16,2c0,5.91.24,11.84,0,17.74-.16,3.53.76,5.06,4.54,5.27,13,.71,25.92,3,38.87,4.55C234.9,30.91,237.66,31.78,241.18,32.57Z" style="fill:#fff"/><path d="M76.29,87.45c-6.19.32-11.78-1.47-16.15-5.86-10-10.09-6.89-26,6.17-31.66,8.46-3.69,16.83-3,24.9,1.17,7.63,4,10.56,12.74,9.48,19.16-1.62,9.57-8.18,15.74-17.38,17A26.17,26.17,0,0,1,76.29,87.45Zm2.13-2.82c.87-.07,2.59-.15,4.3-.34a16.68,16.68,0,0,0,14.55-14.4,16.13,16.13,0,0,0-9.62-17A25,25,0,0,0,70,51.81C57.32,55.36,55.18,69,60.24,76.89,64.25,83.13,70.55,84.82,78.42,84.63Z" style="fill:#fff"/><path d="M21.23,32.42c6.53-1.06,13.05-2.26,19.61-3.15,8.3-1.12,16.64-2,25-3,2.21-.27,3.67,0,4.91,2.39,1.94,3.72,5.68,4.89,9.77,5.53,5.58.89,11,.86,16.22-1.4,2.75-1.18,4.94-3,4.84-6.32S98.78,21.62,96,20.9C90.28,19.41,84.48,18.24,78.72,17c-5.25-1.17-8.6-4.18-8.71-7.8-.09-3.23,2.84-6.52,7.74-7.82,6.91-1.84,13.89-2,20.65.9a11.53,11.53,0,0,1,2.5,1.54c1,.76,2.18,1.73,1.14,3S100,7,98.93,6.29C91.8,1.55,84.27,2.06,76.67,4.9c-1.94.72-3.51,2.18-3.25,4.44a4.78,4.78,0,0,0,3.85,4.07c4.43,1.1,8.87,2.16,13.35,3a41.31,41.31,0,0,1,9.45,2.86c5.94,2.67,6.56,10.11,1.33,14.13s-11.16,4.68-17.2,4.14-12.39-1.32-16-7.47c-.75-1.27-2.16-1-3.38-.9C52.9,30.4,41,31.07,29.16,33.14a23.48,23.48,0,0,1-7.93.2Z" style="fill:#fff"/><path d="M241.18,88.09c-5.7-.2-11.08-1.28-15.67-4.85-6-4.65-8.36-10.93-7.27-18.29s5.28-12.22,12.19-15c9.13-3.64,17.95-3,26.09,2.34,6.29,4.1,8.88,10.48,8,17.87-1.13,9.24-6.84,14.71-15.65,17A55.6,55.6,0,0,1,241.18,88.09Zm19.69-19.88c.15-6.76-2.51-11.8-8.73-14.91a23.78,23.78,0,0,0-19.31-1C225.11,55,222.13,59.55,221.52,67a15.9,15.9,0,0,0,10.33,16.25,25.92,25.92,0,0,0,8.66,1.54C252,85.15,261.11,79.36,260.87,68.21Z" style="fill:#fff"/><path d="M183.78,47.69c4.62.24,9.91.67,14.18,4.44.84.74,2.35,1.52,1.2,3s-2.19.34-3.19-.39c-7.44-5.51-15.52-4.48-23.65-2.2a4.77,4.77,0,0,0-3.76,4.91c.08,2.56,1.59,3.85,4,4.69,6.55,2.3,13.57,2.45,20.11,4.71a30.83,30.83,0,0,1,3.46,1.23c3.27,1.58,5.91,3.81,6,7.74a9.15,9.15,0,0,1-5.58,8.88c-10.21,4.71-20.38,4.92-30.31-.92-1.15-.68-2.75-1.47-1.66-3.06s2.35-.36,3.51.37c8.06,5,16.57,4.93,25.15,1.78,3.09-1.12,5.72-3.23,5.26-7.15C198,72,195.06,71,192,70c-6.42-2.14-13.25-2.48-19.68-4.55-4.81-1.55-7.51-4.27-7.6-8-.08-3.45,2.44-6.38,7.07-8A32.92,32.92,0,0,1,183.78,47.69Z" style="fill:#fff"/><path d="M105.52,52c-.48-2.12-1-3.37,2.54-3.26,6,.19,9.23,4.07,12.78,7.65,6.91,7,13.63,14.1,20.47,21.13.73.75,1.44,2.1,2.6,1.71,1.34-.45.68-1.93.68-3,0-7.39,0-14.78,0-22.18a20.74,20.74,0,0,1,.12-3c.17-1.15.68-2.28,2.07-2.12s1.12,1.36,1.13,2.34q0,11.46.06,22.91c0,3,0,5.92-.06,8.87,0,1.08.32,2.44-1,2.93A3.3,3.3,0,0,1,143.29,85c-5-5.24-10.1-10.43-15.12-15.67-4.44-4.62-8.81-9.3-13.25-13.91a17.15,17.15,0,0,0-3.09-2.62c-2.06-1.3-3.5-1.11-3.54,1.82,0,1.33.39,2.71-.3,4-1.27,0-.94-.91-1.1-1.73C106.56,55.23,107.48,53.2,105.52,52Z" style="fill:#fff"/><path d="M14.09,86.89c-1.84,0-3.7.25-5.52.12a6.82,6.82,0,0,1-6.35-6.73c-.07-8.38-.06-16.75-.07-25.13,0-1.45.12-2.77-1.23-4-1.68-1.52-.94-2.68,1.2-2.68,9,0,17.94-.45,26.77,2.5,9.68,3.24,12.39,13.55,11,20.42C38.31,79.66,33,84.68,25.25,85.67l-.06-2.36c5.91-2,10.34-5.49,11.64-12,1.23-.55,1.33-1.31.43-2.27C36.41,58.63,32.6,54,23.34,52.11c-4.59-.93-9.28-.14-13.89-.72C7.82,51,6,50,5.18,52.54q.08,14.84.14,29.67c-.09,1.48.22,2.51,2.06,1.86l2.19.18c.49,1.32,1,1.43,1.67.1l2.1-.16C12.9,85.28,15.59,85.51,14.09,86.89Z" style="fill:#fff"/><path d="M126.3.57c1.5.17,1.86,1.49,2.42,2.54,2.89,5.43,6,10.78,8.48,16.39,1.21,2.73,4.71,3.14,5.22,4.85.56,1.91-1,4.49,1.05,6.61a10.27,10.27,0,0,1,1.45,3c.38.83,1.43,1.78.14,2.53a2,2,0,0,1-2.88-.86,73.38,73.38,0,0,1-3.66-6.83c-1-2.16-2.46-2.68-4.67-2.61-4.93.16-9.87.25-14.8.08a4.63,4.63,0,0,0-4.9,3,54.7,54.7,0,0,1-3.41,6.13c-.58.9-1.71,1.73-2.85,1s-.25-1.74.2-2.58c.69-1.31,1.4-2.6,2.1-3.9.12-.22.21-.5.4-.61,2.72-1.61-3.3-4.45.62-5.45,2.65-.68,3.45-2.43,4.46-4.39,2.84-5.47,5.68-10.93,8.58-16.36C124.75,2.11,125,.86,126.3.57Zm-.44,22.52c2.55,0,4.64,0,6.73,0,1.87,0,2.57-.65,1.64-2.42-2.17-4.13-4.38-8.23-6.55-12.36-.87-1.66-1.73-1.6-2.56,0-1.27,2.39-2.63,4.74-3.66,7.23s-4.34,4.85-2.87,7C119.91,24.46,123.66,22.72,125.86,23.09Z" style="fill:#fff"/><path d="M20.47,98.65c5.23-.78,10.05,1.1,15,1.49,11.66.93,23.28,2.3,34.92,3.48.61.06,1.23,0,1.85,0,1.25,0,2.27.45,2,2-.23,1.34-1.29,1.25-2.33,1.11-3.53-.48-7.08-.93-10.62-1.39-12.8-1.65-25.66-3-38.35-5.42C22.11,99.76,21.17,99.87,20.47,98.65Z" style="fill:#fff"/><path d="M211.63,68.05c0,5.29,0,10.58,0,15.88,0,1.17.38,2.78-1.45,2.81-1.5,0-2-1.33-2-2.64q0-16.63,0-33.27c0-1.22.38-2.38,1.81-2.23s1.73,1.49,1.73,2.81c0,5.55,0,11.09,0,16.64Z" style="fill:#fff"/><path d="M243.28,99c-7.79,2.42-15.86,3-23.81,4.19-8.81,1.31-17.69,2.24-26.54,3.3-1.91.23-5.09,1.7-5.38-.64-.43-3.44,3.28-2,5.06-2.09,9.81-.19,19.44-2.25,29.26-2.6A74.39,74.39,0,0,0,236,99,15,15,0,0,1,243.28,99Z" style="fill:#fff"/><path d="M90.18,101.24c3.52.13,6.79,3.36,6.65,6.57s-4.54,7.06-7.56,6.84c-3.36-.24-6.53-3.81-6.46-7.28S86.22,101.1,90.18,101.24Zm2.47,6.22c0-2.13-.82-3.54-3.21-3.5s-3.14,1.78-3.09,3.7,1,4.15,3.3,4C91.79,111.52,92.78,109.67,92.65,107.46Z" style="fill:#fff"/><path d="M49.76,68c0,5.16,0,10.32,0,15.49,0,1.12.58,2.78-1.27,2.86-1.49.06-2-1.4-2-2.63-.17-4.42-.23-8.84-.27-13.27-.05-6.15,0-12.29-.05-18.44,0-1.49-.24-3.28,1.93-3.22s1.73,1.93,1.73,3.35V68Z" style="fill:#fff"/><path d="M155.24,85.4c-1-3-.44-6.09-.47-9.14-.08-8.11,0-16.23,0-24.34,0-1.17-.41-2.77,1.36-2.9s1.61,1.43,1.6,2.63q-.06,16.79-.13,33.56Z" style="fill:#fff"/><path d="M159.52,113.84h-1.85c-1,0-2.1.39-2.72-.63-.72-1.19.39-2,.87-3a11.63,11.63,0,0,1,1.56-2.87c1.94-2,3-3.42-1.11-3.37a1.31,1.31,0,0,1-1.36-1.44c0-1.15.87-1.37,1.8-1.38,2,0,3.93-.08,5.9,0,1.64,0,1.87,1,1.17,2.23-1.09,1.92-2.29,3.78-3.46,5.65-.8,1.28-.68,2,1,2.14,1.22.08,3.26-.61,3.17,1.4-.1,2.28-2.25,1.09-3.54,1.31a9,9,0,0,1-1.47,0Z" style="fill:#fff"/><path d="M179.73,112.49c-.22.33-.4.84-.75,1a1.7,1.7,0,0,1-2.29-.55c-2.26-2.94-4.43-3.11-6.62.08a1.53,1.53,0,0,1-1.94.61c-.88-.39-.75-1.12-.43-1.86,1.31-3,2.58-6.06,4-9,.44-1,1.25-2.45,2.35-1A53.5,53.5,0,0,1,179.73,112.49Z" style="fill:#fff"/><path d="M151.54,112.06c-.3.61-.4,1.15-.72,1.4a1.23,1.23,0,0,1-1.68-.23c-2.51-3.25-4.89-3.28-7.33.09a1.31,1.31,0,0,1-2.21-1.39c1.31-3.17,2.57-6.37,4-9.5.64-1.4,2.35-1.72,3-.6C148.47,105.11,149.92,108.64,151.54,112.06Z" style="fill:#fff"/><path d="M121,101.29c2.75-.08,4.86.91,5.37,3.59.45,2.4-1.15,4-3.3,4.66-1.48.45-2.37,1-2.5,2.62a1.51,1.51,0,0,1-1.7,1.54,1.41,1.41,0,0,1-1.28-1.54c0-3.06-.17-6.14,0-9.19C117.81,100.78,119.86,101.62,121,101.29Z" style="fill:#fff"/><path d="M129.12,107.47c0-1.47-.05-2.94,0-4.41a1.58,1.58,0,0,1,1.57-1.7,1.64,1.64,0,0,1,1.64,1.68c.1,1.21,0,2.44,0,3.67,0,2.14-.55,4.55,2.95,4.64a1.14,1.14,0,0,1,.62,2.12c-1.6,1.08-3.59.45-5.36.26-1.6-.17-1.46-1.74-1.52-2.94s0-2.21,0-3.32Z" style="fill:#fff"/><path d="M99.85,107.39c0-1.35,0-2.71,0-4.06a2,2,0,0,1,2.12-2.08c1.68.06,3.86-.81,4.92.65s-.66,1.95-1.89,2.16c-.73.13-1.64.14-1.75,1-.16,1.24.91,1.21,1.75,1.35s1.61.13,1.57,1.14-.86,1.17-1.58,1.23c-1.84.15-2.14,1.25-2,2.81.07,1.06-.28,2.07-1.59,2s-1.49-1.14-1.55-2.14c-.07-1.36,0-2.71,0-4.07Z" style="fill:#fff"/><path d="M108.16,69.83c.1,4.88.22,9.76.28,14.65,0,1,.14,2.46-1.5,2.34-1.34-.11-1.71-1.27-1.69-2.46.08-4.88.2-9.77.31-14.66Z" style="fill:#fff"/><path d="M108.16,69.83l-2.6-.13a157.82,157.82,0,0,1,0-17.67c2,1.17,1,3.2,1.37,4.84.16.82-.17,1.7,1.1,1.73C108,62.34,108.1,66.09,108.16,69.83Z" style="fill:#fff"/><path d="M14.09,86.89c1.5-1.38-1.19-1.61-.75-2.7l11.85-.88.06,2.36C21.71,87.71,17.89,87.24,14.09,86.89Z" style="fill:#fff"/><path d="M112.5,113.82c-1.45.79-1.74-.31-1.75-1.26a82.1,82.1,0,0,1,.13-9.8c.18-1.76,1.37-2.51,2.52-.33-.71.19-1.51.4-1.47,1.32C112.05,107.11,111.39,110.51,112.5,113.82Z" style="fill:#fff"/><path d="M112.5,113.82c-1.11-3.31-.45-6.71-.57-10.07,0-.92.76-1.13,1.47-1.32.8,3.31.15,6.67.34,10C113.78,113.22,113.45,113.84,112.5,113.82Z" style="fill:#fff"/><path d="M155.24,85.4l2.35-.19c.31.9-.09,1.49-1,1.53A1.23,1.23,0,0,1,155.24,85.4Z" style="fill:#fff"/><path d="M9.45,51.39c-1,2-2.85.76-4.27,1.15C6,50,7.82,51,9.45,51.39Z" style="fill:#fff"/><path d="M5.32,82.21l2.06,1.86C5.54,84.72,5.23,83.69,5.32,82.21Z" style="fill:#fff"/><path d="M36.83,71.32a1.76,1.76,0,0,1,.43-2.27C38.16,70,38.06,70.77,36.83,71.32Z" style="fill:#fff"/><path d="M9.57,84.25a1.41,1.41,0,0,1,1.68.1C10.61,85.68,10.06,85.57,9.57,84.25Z" style="fill:#fff"/></svg>