<svg id="Capa_1" data-name="Capa 1" xmlns="http://www.w3.org/2000/svg" viewBox="0 0 58.92 54.48"><path d="M29.46,3.73c14,0,25.43,10.55,25.43,23.51S43.48,50.75,29.46,50.75,4,40.2,4,27.24,15.44,3.73,29.46,3.73m0-3.73C13.19,0,0,12.2,0,27.24S13.19,54.48,29.46,54.48s29.46-12.2,29.46-27.24S45.73,0,29.46,0Z" style="fill:#fff"/><path d="M33.25,17.12c1.07,0,2.14,0,3.22,0h.44V12c-.57-.05-1.17-.13-1.77-.15-1.1-.05-2.2-.1-3.3-.08a8.63,8.63,0,0,0-4.66,1.33,6.39,6.39,0,0,0-2.8,4.31,13.55,13.55,0,0,0-.19,2.21c0,1.16,0,2.31,0,3.47v.43H18.85v5.76h5.3V43.71h6.48V29.26h5.29c.27-1.91.53-3.81.81-5.78H30.59s0-2.86.05-4.09C30.69,17.69,31.78,17.17,33.25,17.12Z" style="fill:#fff;fill-rule:evenodd"/></svg>