<svg id="Capa_1" data-name="Capa 1" xmlns="http://www.w3.org/2000/svg" viewBox="0 0 116.3 117.85"><path d="M98.47,117.85a2.41,2.41,0,0,0,0-4.81H17.84a2.41,2.41,0,0,0,0,4.81Z" style="fill:#354851"/><path d="M113.93,103h-15V72.11A2.4,2.4,0,0,0,97.62,70L73.32,57.45V2.4a2.43,2.43,0,0,0-1.13-2A2.35,2.35,0,0,0,69.88.26L44.28,13.45A2.39,2.39,0,0,0,43,15.59V39.13L18.67,51.65a2.4,2.4,0,0,0-1.29,2.14V103h-15a2.41,2.41,0,0,0,0,4.81H113.93a2.41,2.41,0,0,0,0-4.81Zm-71,0H22.12V55.26L43,44.52Zm25.6-44.07h0V103H47.72V17.06L68.58,6.32ZM94.18,103H73.32V62.84L94.18,73.58Z" style="fill:#354851"/><path d="M79.78,99.63a1.8,1.8,0,0,0,1.78-1.81V71.64a1.78,1.78,0,1,0-3.56,0V97.82A1.79,1.79,0,0,0,79.78,99.63Z" style="fill:#354851"/><path d="M87.72,99.63a1.79,1.79,0,0,0,1.78-1.81V79.25a1.78,1.78,0,1,0-3.55,0V97.82A1.79,1.79,0,0,0,87.72,99.63Z" style="fill:#354851"/><path d="M36.52,99.63a1.79,1.79,0,0,0,1.78-1.81V53.89a1.78,1.78,0,1,0-3.55,0V97.82A1.79,1.79,0,0,0,36.52,99.63Z" style="fill:#354851"/><path d="M28.58,99.63a1.79,1.79,0,0,0,1.77-1.81V61.5a1.78,1.78,0,1,0-3.55,0V97.82A1.79,1.79,0,0,0,28.58,99.63Z" style="fill:#354851"/><path d="M62.45,99.63a1.8,1.8,0,0,0,1.78-1.81V16.27a1.78,1.78,0,1,0-3.56,0V97.82A1.8,1.8,0,0,0,62.45,99.63Z" style="fill:#354851"/><path d="M53.85,99.63a1.8,1.8,0,0,0,1.78-1.81V24.28a1.78,1.78,0,1,0-3.56,0V97.82A1.8,1.8,0,0,0,53.85,99.63Z" style="fill:#354851"/></svg>