<svg id="Capa_1" data-name="Capa 1" xmlns="http://www.w3.org/2000/svg" viewBox="0 0 53.29 53.25"><path d="M53.26,42a2.55,2.55,0,0,1-.79,2.25L45,51.73a4.11,4.11,0,0,1-1.33,1,5.71,5.71,0,0,1-1.6.51l-.34,0a7.26,7.26,0,0,1-.74,0,24.66,24.66,0,0,1-9.33-2.17,49.88,49.88,0,0,1-7.87-4.31,59.39,59.39,0,0,1-9.37-7.9,62.33,62.33,0,0,1-6.54-7.45,52.8,52.8,0,0,1-4.17-6.57,34.29,34.29,0,0,1-2.37-5.47A27.83,27.83,0,0,1,.24,15.15,13.79,13.79,0,0,1,0,12.35c0-.67.06-1,.06-1.12a5.34,5.34,0,0,1,.5-1.61,4.42,4.42,0,0,1,1-1.33L9,.79A2.45,2.45,0,0,1,10.84,0a2.13,2.13,0,0,1,1.3.42,4.21,4.21,0,0,1,1,1.05l6,11.45a2.73,2.73,0,0,1,.29,2,3.58,3.58,0,0,1-1,1.81l-2.77,2.76a1.13,1.13,0,0,0-.2.37,1.59,1.59,0,0,0-.08.42,10.15,10.15,0,0,0,1,2.71,24.91,24.91,0,0,0,2.08,3.3,36.36,36.36,0,0,0,4,4.48,37.12,37.12,0,0,0,4.51,4,26.18,26.18,0,0,0,3.3,2.11,8.62,8.62,0,0,0,2,.82l.71.14a1.6,1.6,0,0,0,.36-.08,1,1,0,0,0,.37-.2L37,34.3a3.43,3.43,0,0,1,2.36-.9,3,3,0,0,1,1.53.33H41l10.89,6.43A2.83,2.83,0,0,1,53.26,42Z" style="fill:#fff"/></svg>