<svg id="Capa_1" data-name="Capa 1" xmlns="http://www.w3.org/2000/svg" viewBox="0 0 54.51 54.51"><path d="M27.58,0h1.81c.26,0,.52.08.78.09a30.38,30.38,0,0,1,9.62,1.83,22.67,22.67,0,0,1,9.89,6.86A21.84,21.84,0,0,1,54.5,23.47a18.33,18.33,0,0,1-3,10,17,17,0,0,1-11.86,7.7,12,12,0,0,1-5.53-.27A4.32,4.32,0,0,1,31,37.61a15.31,15.31,0,0,1-.22-2.26,4.87,4.87,0,0,1,0-.54l-.17-.06-.72,1a15.79,15.79,0,0,1-4.71,4.39,8.72,8.72,0,0,1-6.36,1.06c-2.68-.65-4.22-2.54-5.08-5.06a13.53,13.53,0,0,1-.33-6.26,21,21,0,0,1,6.26-12.78,12.7,12.7,0,0,1,6.23-3.49,9.22,9.22,0,0,1,7.12,1c.46.29.89.62,1.27.87.52-.49,1-.93,1.5-1.42a1.21,1.21,0,0,1,1-.42c.89,0,1.77,0,2.66,0h.91c-.89,5-1.78,9.89-2.62,14.8a31.37,31.37,0,0,0-.45,4.43c0,1.58.86,2.32,2.44,2.26a6.78,6.78,0,0,0,3.68-1.25,10.63,10.63,0,0,0,4.06-6.76,20,20,0,0,0,.12-7.51A14.37,14.37,0,0,0,39.11,8.28,22.24,22.24,0,0,0,31.2,6.36,23.24,23.24,0,0,0,18.73,8.48,20.48,20.48,0,0,0,8.32,19.65a23.09,23.09,0,0,0,.32,18.12,16,16,0,0,0,8.59,8.44,24,24,0,0,0,7.12,1.86,23.76,23.76,0,0,0,9.38-.67c.72-.22,1.42-.49,2.17-.75.61,1.9,1.22,3.78,1.86,5.79-1.35.45-2.63,1-4,1.31a33.39,33.39,0,0,1-15.65-.37A23.22,23.22,0,0,1,.32,33.24c-.13-1-.21-1.93-.32-2.9V26.62c0-.19.07-.38.1-.57a50,50,0,0,1,.82-5.19c3-11.5,12.26-19,23.6-20.55C25.53.18,26.56.1,27.58,0ZM20.46,30.68a14.61,14.61,0,0,0,.23,1.77A3.17,3.17,0,0,0,22,34.6a3.72,3.72,0,0,0,4-.1A12.13,12.13,0,0,0,29.71,31a6.12,6.12,0,0,0,1.21-2c.57-2.55,1-5.15,1.43-7.73a.55.55,0,0,0-.12-.46,5,5,0,0,0-2.41-1.17,6.47,6.47,0,0,0-6,2.28A13.4,13.4,0,0,0,20.46,30.68Z" style="fill:#fff"/></svg>