<svg id="Capa_1" data-name="Capa 1" xmlns="http://www.w3.org/2000/svg" viewBox="0 0 117.6 117.85"><path d="M31.81,58.8q0-9.45,0-18.92c0-4.93,3.1-8,8-8q19,0,38,0c4.91,0,8,3.1,8,8q0,19.09,0,38.19c0,4.82-3.12,8-7.9,8H39.71c-4.78,0-7.89-3.14-7.9-8Q31.8,68.44,31.81,58.8ZM59,37.26H40.41c-2.76,0-3.26.51-3.26,3.21q0,18.39,0,36.78c0,2.86.48,3.35,3.29,3.35l36.78,0c2.72,0,3.26-.52,3.26-3.22V40.45c0-2.61-.56-3.19-3.12-3.19Z"/><path d="M106.48,14.94,95.85,25.52h5.75v5.05H87.15V16.05H92v5.63L102.6,10.86Z"/><path d="M21.79,92.26H16v-5H30.46v14.53H25.65v-5.7L15,107l-3.93-4.07Z"/><path d="M5.39,5.3v7.31H0V5.31C0,.24.24,0,5.25,0l6.91,0a1.89,1.89,0,0,1,.45.15V5.3Z"/><path d="M117.57,12.67H112.3V5.49H105V0h4.72c1.67,0,3.35,0,5,0a2.53,2.53,0,0,1,2.79,2.5C117.65,5.86,117.57,9.2,117.57,12.67Z"/><path d="M0,105.22H5.32v7.18h7.29v5.35c-3.46,0-7,.1-10.46,0C.67,117.64,0,116.39,0,115,0,111.8,0,108.62,0,105.22Z"/><path d="M105,112.47c1.54,0,2.92,0,4.29,0,3,0,3,0,3-3.09v-4.15h5.29c0,3.49.07,6.88,0,10.27a2.3,2.3,0,0,1-2.4,2.29c-3.34.07-6.68,0-10.12,0Z"/><path d="M.15,23H5.2V40h-5Z"/><path d="M112.39,23.08h5.14v17h-5.14Z"/><path d="M5.24,67.47H.1v-17H5.24Z"/><path d="M117.53,50.42v17h-5.15v-17Z"/><path d="M5.2,94.8H.08v-17H5.2Z"/><path d="M112.39,77.75h5.08v17h-5.08Z"/><path d="M22.93,5.3V.14H39.87V5.3Z"/><path d="M94.68,0V5.25H77.59c0-1.43,0-3,0-4.49,0-.26.59-.71.91-.72C83.86,0,89.17,0,94.68,0Z"/><path d="M23,117.85v-5.27H40c0,1.49,0,3,0,4.45a1.18,1.18,0,0,1-.85.78C33.77,117.86,28.41,117.85,23,117.85Z"/><path d="M77.65,117.71v-5.15H94.6v5.15Z"/><path d="M50.39.11H67.25V5.28H50.39Z"/><path d="M50.37,112.54H67.2v5.22H50.37Z"/><path d="M63.68,59a4.87,4.87,0,1,1-4.78-4.89A4.82,4.82,0,0,1,63.68,59Z"/></svg>