<svg id="Capa_1" data-name="Capa 1" xmlns="http://www.w3.org/2000/svg" viewBox="0 0 104.32 117.85"><path d="M0,36.49c0-4.33,0-8.65,0-13,0-4.17,0-4.2,4.19-4.19A67.17,67.17,0,0,0,27,15.57C36.06,12.35,44.25,7.74,50.85.72c.85-.89,1.36-1,2.32-.08C66.62,13.3,82.75,19.42,101.4,19.33c3.12,0,2.86-.31,2.83,2.81-.06,9.19.36,18.38-.25,27.55C102.86,66.22,98.54,81.77,88,95.15a62.12,62.12,0,0,1-33.86,22.42c-3.2.84-6-.41-8.74-1.4-17-6.1-29.15-17.48-36.87-33.36C2.7,70.74.33,57.87,0,44.59c-.06-2.7,0-5.4,0-8.1Zm95.17,3.8c0-3.6,0-7.2,0-10.8,0-1-.22-1.52-1.38-1.6A76.51,76.51,0,0,1,53.4,12.73c-1.14-.83-1.74-.51-2.66.19a74,74,0,0,1-40,15C9.43,28,9,28.37,9,29.6c.06,4.26,0,8.53,0,12.79A88,88,0,0,0,14,72.58c6.13,16.81,17.32,28.9,34.61,35.36a9.77,9.77,0,0,0,7.25-.09C72.34,101.7,83.23,90.2,89.57,74.38,94,63.43,95.26,52,95.17,40.29Z" style="fill:#354851"/><path d="M36.18,62.06a1.73,1.73,0,0,1,1.13.66c1.4,1.35,2.84,2.66,4.16,4.09,1,1,1.52,1.13,2.5-.11,7.27-9.3,14.65-18.51,21.92-27.81,1-1.34,1.71-1.66,3.13-.48,2.42,2,5,3.91,7.56,5.75,1.17.83,1.23,1.39.33,2.53Q62.3,65,47.8,83.42,46.39,85.21,45,87c-.53.7-1,1-1.75.22C38,82.06,32.76,76.94,27.5,71.8c-.46-.44-.63-.8-.08-1.34,2.76-2.65,5.49-5.33,8.23-8A5.27,5.27,0,0,1,36.18,62.06Z" style="fill:#354851"/></svg>